<svg xmlns="http://www.w3.org/2000/svg" viewBox="0 0 512 512" role="img" aria-labelledby="title desc">
  <title id="title">Comic Workspace mark</title>
  <desc id="desc">CW logo mark with teal and violet gradients.</desc>
  <defs>
    <linearGradient id="cw-bg" x1="76" y1="54" x2="448" y2="462" gradientUnits="userSpaceOnUse">
      <stop offset="0" stop-color="#0a1c25"/>
      <stop offset=".52" stop-color="#07101a"/>
      <stop offset="1" stop-color="#0d1020"/>
    </linearGradient>
    <linearGradient id="cw-teal" x1="110" y1="92" x2="339" y2="394" gradientUnits="userSpaceOnUse">
      <stop offset="0" stop-color="#32f5dd"/>
      <stop offset=".55" stop-color="#11c7bb"/>
      <stop offset="1" stop-color="#0b8d9d"/>
    </linearGradient>
    <linearGradient id="cw-violet" x1="230" y1="210" x2="400" y2="410" gradientUnits="userSpaceOnUse">
      <stop offset="0" stop-color="#76e9ff"/>
      <stop offset=".48" stop-color="#7c7cff"/>
      <stop offset="1" stop-color="#6d3df2"/>
    </linearGradient>
    <filter id="cw-glow" x="-30%" y="-30%" width="160%" height="160%">
      <feGaussianBlur stdDeviation="12" result="blur"/>
      <feColorMatrix in="blur" type="matrix" values="0 0 0 0 0.1 0 0 0 0 0.95 0 0 0 0 0.85 0 0 0 .42 0"/>
      <feMerge>
        <feMergeNode/>
        <feMergeNode in="SourceGraphic"/>
      </feMerge>
    </filter>
  </defs>
  <rect width="512" height="512" rx="120" fill="url(#cw-bg)"/>
  <rect x="15" y="15" width="482" height="482" rx="106" fill="none" stroke="#2df2da" stroke-opacity=".34" stroke-width="7"/>
  <ellipse cx="256" cy="282" rx="252" ry="70" fill="none" stroke="#16f2df" stroke-width="8" stroke-opacity=".72" transform="rotate(-13 256 282)"/>
  <path filter="url(#cw-glow)" fill="url(#cw-teal)" d="M265 111c-78 0-139 59-139 139 0 83 60 145 141 145 38 0 75-14 102-39l-49-58c-15 14-32 20-52 20-39 0-65-29-65-68 0-38 27-64 66-64 21 0 38 7 52 20l50-58c-28-24-65-37-106-37Z"/>
  <path filter="url(#cw-glow)" fill="url(#cw-violet)" d="M265 226c20 0 37 12 43 33l24 79 28-93h75l-65 174h-72l-32-95-32 95h-71l-54-145h77l20 64 21-79c6-21 19-33 38-33Z"/>
</svg>
